<svg width="1080" height="600" xmlns="http://www.w3.org/2000/svg" data-name="Layer 1">
 <g>
  <title>Layer 1</title>
  <path id="svg_2" opacity="0.58" fill="#e0e0e0" d="m638.02994,145.42876a155.89,155.89 0 0 0 -223.11,-1.68c-59,59.48 -60,156.33 -2.29,217.07a155.89,155.89 0 0 0 199.9,22.06l112.69,117.21a7.59,7.59 0 0 0 10.73,0.21l28.08,-27a7.59,7.59 0 0 0 0.21,-10.73l-112.66,-117.2a155.9,155.9 0 0 0 -13.55,-199.94zm-35.1,188.45a111.5,111.5 0 1 1 3.1,-157.66a111.5,111.5 0 0 1 -3.1,157.66z"/>
  <path id="svg_3" fill="url(#043d467e-585e-47c7-bb2c-06dd6f5be04b)" transform="translate(0 -233.764) translate(1 0) translate(-1 0) translate(0 -0.425532) translate(0.425532 0) translate(-0.425532 0) translate(-0.425532 0) translate(-58.5714 24.2857) translate(-179 -60.54)" d="m685.49,487.6c-12.54,0 -12.56,19.49 0,19.49s12.56,-19.49 0,-19.49z"/>
  <path id="svg_4" stroke="null" fill="#08a0e5" d="m447.67277,210.31831c-12.54,0 -12.56,19.49 0,19.49s12.56,-19.49 0,-19.49z"/>
  <path id="svg_5" fill="#08a0e5" d="m645.57016,141.75447a155.89,155.89 0 0 0 -223.11,-1.68c-59,59.48 -60,156.33 -2.29,217.07a155.89,155.89 0 0 0 199.9,22.05l112.68,117.22a7.59,7.59 0 0 0 10.73,0.21l28.08,-27a7.59,7.59 0 0 0 0.21,-10.73l-112.69,-117.21a155.9,155.9 0 0 0 -13.51,-199.93zm-35.1,188.37a111.5,111.5 0 1 1 3.1,-157.66a111.5,111.5 0 0 1 -3.1,157.66z"/>
  <path id="svg_6" opacity="0.58" fill="#e0e0e0" d="m533.26209,158.90853c-33.75,-0.76 -64.46,16.17 -80.79,41.73c-5.33,8.34 9.8,15.71 15.1,7.41c13.52,-21.16 39.21,-34.6 67,-33.9c29.12,0.73 55.62,17.39 69.65,40.51c5.32,8.77 19.27,0.8 14,-7.92c-17.06,-28 -50.1,-47 -84.96,-47.83z"/>
  <path id="svg_7" fill="#08a0e5" d="m533.17804,149.70782c-33.75,-0.76 -64.46,16.17 -80.79,41.73c-5.33,8.34 9.8,15.71 15.1,7.41c13.52,-21.16 39.21,-34.6 67,-33.9c29.12,0.73 55.62,17.39 69.65,40.51c5.32,8.77 19.27,0.8 14,-7.92c-17.09,-28.08 -50.09,-47.08 -84.96,-47.83z"/>
 </g>
</svg>